<svg width="495" height="39" xmlns="http://www.w3.org/2000/svg" xmlns:xlink="http://www.w3.org/1999/xlink"><defs><path d="M27.645 49.95l-.458.05c-.577 0-.967-.271-1.17-.814l-3.157-8.399H6.623l-3.155 8.399c-.204.543-.594.814-1.171.814l-.458-.05a1.356 1.356 0 0 1-.687-.688c-.153-.322-.162-.636-.026-.942l12.369-33.034c.237-.509.662-.763 1.272-.763.611 0 1.001.254 1.171.763L28.307 48.32c.136.306.136.62 0 .942a1.252 1.252 0 0 1-.662.687zM14.767 19.154L7.54 38.293h14.404l-7.177-19.138zm24.22 27.282c-.576-.509-.627-1.052-.152-1.629.204-.271.475-.424.814-.458.34-.034.645.068.917.305 2.646 1.935 5.056 2.902 7.227 2.902 2.172 0 3.886-.51 5.141-1.527 1.256-.849 1.875-1.841 1.858-2.978-.017-1.137-.577-2.146-1.68-3.028-1.102-.883-2.892-1.527-5.37-1.935l-.101-.05c-2.647-.476-4.53-1.12-5.65-1.935-1.799-1.052-2.698-2.545-2.698-4.479 0-1.934.9-3.563 2.698-4.886 1.629-1.12 3.665-1.68 6.108-1.68.984 0 1.976.161 2.977.484 1.002.322 1.765.627 2.291.916.526.288 1.247.72 2.163 1.298.272.203.441.475.51.814.067.34.016.645-.153.916-.17.272-.425.441-.764.51-.34.067-.645.016-.916-.153a44.358 44.358 0 0 0-1.909-1.247c-.424-.255-1.043-.526-1.858-.815-.814-.288-1.595-.433-2.341-.433-1.968 0-3.512.45-4.632 1.35-1.12.899-1.68 1.84-1.68 2.824 0 .984.475 1.85 1.425 2.596 1.188.815 2.885 1.391 5.09 1.73h.102c2.206.34 4.225 1.019 6.057 2.037 1.867 1.221 2.8 2.859 2.8 4.912s-.925 3.766-2.774 5.14C52.637 49.314 50.542 50 48.2 50c-3.224-.034-6.295-1.222-9.213-3.563zM71.964 50h-.255c-.814 0-1.221-.407-1.221-1.222V15.592c0-.34.119-.628.356-.866.238-.237.526-.356.865-.356.34 0 .637.119.891.356.255.238.382.526.382.866v13.132c2.07-2.443 4.632-3.665 7.686-3.665 3.054 0 5.59.925 7.61 2.774 2.018 1.85 3.028 4.2 3.028 7.05v13.895c0 .34-.127.628-.382.866a1.264 1.264 0 0 1-.89.356c-.34 0-.628-.119-.866-.356a1.178 1.178 0 0 1-.356-.866V34.883c0-2.138-.764-3.894-2.29-5.268-1.528-1.375-3.403-2.062-5.625-2.062-2.223 0-4.098.687-5.625 2.062-1.527 1.374-2.29 3.13-2.29 5.268V48.93c0 .068-.068.23-.204.484-.135.254-.373.432-.712.534-.034.034-.068.051-.102.051zm34.96-1.222V15.592c0-.34.119-.628.356-.866.238-.237.526-.356.866-.356.339 0 .636.119.89.356.255.238.382.526.382.866v33.186c0 .34-.127.628-.382.866a1.264 1.264 0 0 1-.89.356c-.34 0-.628-.119-.866-.356a1.178 1.178 0 0 1-.356-.866zm39.541-12.114v.204c0 .34-.118.61-.356.814a1.284 1.284 0 0 1-.865.306H124.78c.136 2.714 1.137 4.988 3.003 6.82 1.866 1.833 4.089 2.749 6.668 2.749a9.178 9.178 0 0 0 4.632-1.222 9.378 9.378 0 0 0 3.41-3.308c.407-.679.95-.815 1.629-.408.679.476.814 1.052.407 1.731a12.069 12.069 0 0 1-4.3 4.123A11.45 11.45 0 0 1 134.451 50c-3.36 0-6.218-1.213-8.577-3.64-2.358-2.426-3.537-5.36-3.537-8.805 0-3.444 1.179-6.388 3.537-8.831 2.359-2.443 5.175-3.665 8.45-3.665 3.274 0 6.048 1.111 8.322 3.334 2.273 2.223 3.546 4.98 3.817 8.271zm-5.904-6.871c-1.765-1.527-3.81-2.29-6.134-2.29-2.324 0-4.368.754-6.133 2.264-1.765 1.51-2.884 3.453-3.36 5.828h18.885c-.408-2.341-1.494-4.275-3.258-5.802zm41.78 6.871v.204c0 .34-.118.61-.356.814a1.284 1.284 0 0 1-.865.306h-20.462c.136 2.714 1.137 4.988 3.003 6.82 1.867 1.833 4.09 2.749 6.668 2.749a9.178 9.178 0 0 0 4.632-1.222 9.378 9.378 0 0 0 3.41-3.308c.408-.679.95-.815 1.63-.408.678.476.814 1.052.407 1.731a12.069 12.069 0 0 1-4.301 4.123A11.45 11.45 0 0 1 170.328 50c-3.359 0-6.218-1.213-8.576-3.64-2.359-2.426-3.538-5.36-3.538-8.805 0-3.444 1.18-6.388 3.538-8.831 2.358-2.443 5.175-3.665 8.45-3.665 3.274 0 6.048 1.111 8.321 3.334 2.274 2.223 3.546 4.98 3.818 8.271zm-5.904-6.871c-1.764-1.527-3.809-2.29-6.133-2.29-2.325 0-4.369.754-6.134 2.264-1.764 1.51-2.884 3.453-3.359 5.828h18.884c-.407-2.341-1.493-4.275-3.258-5.802zm43.987 14.939c-3.614-3.512-5.42-7.77-5.42-12.776 0-5.005 1.806-9.264 5.42-12.776 3.614-3.512 7.983-5.285 13.107-5.319 4.276 0 8.11 1.306 11.503 3.92.272.237.433.534.484.89.05.356-.042.653-.28.89a1.091 1.091 0 0 1-.84.51c-.356.034-.653-.051-.89-.255-2.953-2.307-6.278-3.46-9.977-3.46-4.445 0-8.229 1.526-11.35 4.58-3.123 3.054-4.683 6.736-4.683 11.045 0 4.31 1.56 7.975 4.682 10.995 3.122 3.02 6.762 4.53 10.918 4.53 4.157 0 7.593-1.154 10.308-3.461.305-.204.636-.28.992-.23.356.052.62.23.79.535.237.238.338.543.305.916-.034.374-.187.662-.459.866C241.674 48.71 237.84 50 233.53 50c-5.124 0-9.493-1.756-13.107-5.268zm38.549-7.203c0-3.393 1.154-6.32 3.461-8.78 2.308-2.46 5.09-3.69 8.348-3.69 3.257 0 6.04 1.23 8.347 3.69 2.308 2.46 3.462 5.387 3.462 8.78 0 3.394-1.154 6.32-3.462 8.78-2.307 2.46-5.09 3.691-8.347 3.691-3.258 0-6.04-1.23-8.348-3.69-2.307-2.46-3.461-5.387-3.461-8.78zm5.217-7.126c-1.85 1.969-2.774 4.335-2.774 7.101s.925 5.132 2.774 7.1c1.85 1.969 4.047 2.953 6.592 2.953s4.742-.984 6.591-2.952c1.85-1.969 2.774-4.335 2.774-7.101s-.924-5.132-2.774-7.1c-1.849-1.969-4.046-2.953-6.591-2.953s-4.742.984-6.592 2.952zm32.136 9.417V26.23c0-.34.118-.628.356-.866.237-.237.526-.356.865-.356.34 0 .628.119.865.356.238.238.357.526.357.866v13.59c0 2.138.746 3.953 2.24 5.446 1.492 1.493 3.29 2.257 5.395 2.29 2.138-.033 3.961-.797 5.471-2.29 1.51-1.493 2.266-3.308 2.266-5.446V26.23c0-.34.127-.628.381-.866.255-.237.552-.356.891-.356.34 0 .628.119.865.356.238.238.357.526.357.866v13.59c0 2.816-.993 5.217-2.978 7.202-1.985 1.985-4.386 2.978-7.202 2.978-2.817 0-5.21-.993-7.177-2.978-1.968-1.985-2.952-4.386-2.952-7.202zm36.945 8.958V15.592c0-.34.119-.628.356-.866.238-.237.526-.356.865-.356.34 0 .637.119.891.356.255.238.382.526.382.866v33.186c0 .34-.127.628-.382.866a1.264 1.264 0 0 1-.89.356c-.34 0-.628-.119-.866-.356a1.178 1.178 0 0 1-.356-.866zm37.149 0v-3.614a12.178 12.178 0 0 1-4.174 3.538c-1.663.865-3.461 1.298-5.395 1.298-3.36 0-6.21-1.213-8.552-3.64-2.341-2.426-3.512-5.36-3.512-8.805 0-3.444 1.171-6.388 3.512-8.831 2.342-2.443 5.192-3.665 8.552-3.665 1.934 0 3.732.441 5.395 1.323a12.44 12.44 0 0 1 4.174 3.563V15.592c0-.34.127-.628.382-.866.254-.237.551-.356.89-.356.34 0 .628.119.866.356.237.238.356.526.356.866v33.186c0 .34-.119.628-.356.866a1.178 1.178 0 0 1-.866.356c-.339 0-.636-.119-.89-.356a1.14 1.14 0 0 1-.382-.866zm-16.314-4.173c1.884 1.934 4.123 2.9 6.72 2.9 2.595 0 4.818-.924 6.667-2.773 1.85-1.85 2.825-4.098 2.927-6.744v-.815c-.102-2.68-1.078-4.954-2.927-6.82-1.85-1.867-4.072-2.8-6.668-2.8s-4.835.976-6.719 2.927c-1.883 1.951-2.825 4.31-2.825 7.075 0 2.766.942 5.115 2.825 7.05zM411.895 50h-.255c-.543-.068-.866-.322-.967-.764l-.051-.05-5.803-13.794-5.752 13.743c-.034.034-.05.068-.05.102-.17.509-.526.763-1.07.763-.305 0-.525-.068-.661-.204-.238-.101-.407-.288-.51-.56l-9.365-22.294a1.082 1.082 0 0 1 0-.916c.34-.746.866-.967 1.578-.662.306.136.51.357.611.662l8.297 19.647 5.751-13.692c.238-.509.637-.763 1.197-.763s.958.254 1.196.763l5.751 13.692 8.246-19.647c.136-.305.365-.526.687-.662.323-.135.628-.135.917 0 .288.136.5.357.636.662.136.306.136.61 0 .916l-9.315 22.193a1.52 1.52 0 0 1-.483.61c-.221.17-.416.255-.586.255zm48.092-13.336v.204c0 .34-.12.61-.357.814a1.284 1.284 0 0 1-.865.306h-20.462c.136 2.714 1.137 4.988 3.003 6.82 1.867 1.833 4.09 2.749 6.668 2.749a9.178 9.178 0 0 0 4.632-1.222 9.378 9.378 0 0 0 3.41-3.308c.408-.679.95-.815 1.63-.408.678.476.814 1.052.406 1.731a12.069 12.069 0 0 1-4.3 4.123A11.45 11.45 0 0 1 447.973 50c-3.36 0-6.218-1.213-8.576-3.64-2.359-2.426-3.538-5.36-3.538-8.805 0-3.444 1.18-6.388 3.538-8.831 2.358-2.443 5.174-3.665 8.449-3.665 3.275 0 6.049 1.111 8.322 3.334 2.274 2.223 3.546 4.98 3.818 8.271zm-5.905-6.871c-1.764-1.527-3.809-2.29-6.133-2.29-2.325 0-4.37.754-6.134 2.264-1.764 1.51-2.884 3.453-3.359 5.828h18.884c-.407-2.341-1.493-4.275-3.258-5.802zm19.792 18.985V15.592c0-.34.12-.628.357-.866.237-.237.526-.356.865-.356.34 0 .636.119.89.356.255.238.382.526.382.866v33.186c0 .34-.127.628-.381.866a1.264 1.264 0 0 1-.891.356c-.34 0-.628-.119-.865-.356a1.178 1.178 0 0 1-.357-.866zm17.553 0V15.592c0-.34.119-.628.356-.866.238-.237.526-.356.865-.356.34 0 .637.119.891.356.255.238.382.526.382.866v33.186c0 .34-.127.628-.382.866a1.264 1.264 0 0 1-.89.356c-.34 0-.628-.119-.866-.356a1.178 1.178 0 0 1-.356-.866z" id="b"/><filter x="-.2%" y="-2.1%" width="100.6%" height="108.3%" filterUnits="objectBoundingBox" id="a"><feOffset dx="1.5" dy="1.5" in="SourceAlpha" result="shadowOffsetOuter1"/><feColorMatrix values="0 0 0 0 0.752941176 0 0 0 0 0.752941176 0 0 0 0 0.752941176 0 0 0 0.995838995 0" in="shadowOffsetOuter1"/></filter></defs><g fill="none" fill-rule="evenodd"><path d="M-1-13h500v63H-1z"/><g opacity=".798" fill="#000" transform="translate(-1 -13)"><use filter="url(#a)" xlink:href="#b"/><use xlink:href="#b"/></g></g></svg>